<svg width="29" height="24" viewBox="0 0 29 24" fill="none" xmlns="http://www.w3.org/2000/svg">
<path d="M20.7415 9.16994C20.5204 8.98369 20.2214 8.87915 19.9097 8.87915C19.5981 8.87915 19.299 8.98369 19.078 9.16994L14.8426 12.7099L10.6662 9.16994C10.4452 8.98369 10.1461 8.87915 9.83446 8.87915C9.52278 8.87915 9.22377 8.98369 9.00272 9.16994C8.89214 9.26291 8.80438 9.37351 8.74448 9.49537C8.68458 9.61723 8.65375 9.74793 8.65375 9.87994C8.65375 10.012 8.68458 10.1427 8.74448 10.2645C8.80438 10.3864 8.89214 10.497 9.00272 10.5899L14.005 14.8299C14.1146 14.9237 14.2451 14.9981 14.3889 15.0488C14.5327 15.0996 14.6869 15.1257 14.8426 15.1257C14.9984 15.1257 15.1526 15.0996 15.2963 15.0488C15.4401 14.9981 15.5706 14.9237 15.6803 14.8299L20.7415 10.5899C20.8521 10.497 20.9398 10.3864 20.9997 10.2645C21.0596 10.1427 21.0905 10.012 21.0905 9.87994C21.0905 9.74793 21.0596 9.61723 20.9997 9.49537C20.9398 9.37351 20.8521 9.26291 20.7415 9.16994Z" fill="#04352E"/>
</svg>
