<svg width="28" height="27" viewBox="0 0 28 27" fill="none" xmlns="http://www.w3.org/2000/svg">
<path d="M22.1667 7.875H21V6.75C21 5.85489 20.6313 4.99645 19.9749 4.36351C19.3185 3.73058 18.4283 3.375 17.5 3.375H5.83337C4.90512 3.375 4.01488 3.73058 3.3585 4.36351C2.70212 4.99645 2.33337 5.85489 2.33337 6.75V20.25C2.33337 21.1451 2.70212 22.0036 3.3585 22.6365C4.01488 23.2694 4.90512 23.625 5.83337 23.625H22.1667C23.095 23.625 23.9852 23.2694 24.6416 22.6365C25.298 22.0036 25.6667 21.1451 25.6667 20.25V11.25C25.6667 10.3549 25.298 9.49645 24.6416 8.86351C23.9852 8.23058 23.095 7.875 22.1667 7.875ZM5.83337 5.625H17.5C17.8095 5.625 18.1062 5.74353 18.325 5.9545C18.5438 6.16548 18.6667 6.45163 18.6667 6.75V7.875H5.83337C5.52395 7.875 5.22721 7.75647 5.00842 7.5455C4.78962 7.33452 4.66671 7.04837 4.66671 6.75C4.66671 6.45163 4.78962 6.16548 5.00842 5.9545C5.22721 5.74353 5.52395 5.625 5.83337 5.625ZM23.3334 16.875H22.1667C21.8573 16.875 21.5605 16.7565 21.3417 16.5455C21.123 16.3345 21 16.0484 21 15.75C21 15.4516 21.123 15.1655 21.3417 14.9545C21.5605 14.7435 21.8573 14.625 22.1667 14.625H23.3334V16.875ZM23.3334 12.375H22.1667C21.2385 12.375 20.3482 12.7306 19.6918 13.3635C19.0355 13.9964 18.6667 14.8549 18.6667 15.75C18.6667 16.6451 19.0355 17.5036 19.6918 18.1365C20.3482 18.7694 21.2385 19.125 22.1667 19.125H23.3334V20.25C23.3334 20.5484 23.2105 20.8345 22.9917 21.0455C22.7729 21.2565 22.4761 21.375 22.1667 21.375H5.83337C5.52395 21.375 5.22721 21.2565 5.00842 21.0455C4.78962 20.8345 4.66671 20.5484 4.66671 20.25V9.93375C5.04152 10.0609 5.43605 10.1256 5.83337 10.125H22.1667C22.4761 10.125 22.7729 10.2435 22.9917 10.4545C23.2105 10.6655 23.3334 10.9516 23.3334 11.25V12.375Z" fill="#07E5CA"/>
</svg>
