<svg width="332" height="281" viewBox="0 0 332 281" fill="none" xmlns="http://www.w3.org/2000/svg">
<path d="M1.34363 0H166.096V40.5727H1.34363V0Z" fill="#04352E"/>
<path d="M39.0316 0.0290527V173.228H0.43634V0.0290527H39.0316Z" fill="#04352E"/>
<path d="M0.164703 173.594H164.922V214.166H0.164703V173.594Z" fill="#04352E"/>
<path d="M165.259 95.4658V173.299H126.664V95.4658H165.259Z" fill="#04352E"/>
<path d="M165.297 0H330.055V40.5727H165.297V0Z" fill="#A6A6A6"/>
<path d="M165.297 93.6248H330.055V134.197H165.297V93.6248Z" fill="#A6A6A6"/>
<path d="M165.297 173.594H330.055V214.166H165.297V173.594Z" fill="#A6A6A6"/>
<path d="M205.338 40.905V93.5228H166.742V40.905H205.338Z" fill="#A6A6A6"/>
<path d="M330.392 134.527V187.145H291.797V134.527H330.392Z" fill="#A6A6A6"/>
<path d="M292.372 237.138H332V281H292.372V237.138Z" fill="#1CBFA8"/>
<path d="M21.3621 257.313H29.0334V270.174C27.3926 271.379 25.3716 272.379 22.9702 273.167C20.5798 273.944 18.3088 274.332 16.1683 274.332C13.0933 274.332 10.3279 273.618 7.86682 272.185C5.41659 270.757 3.48791 268.792 2.08623 266.291C0.69541 263.795 0 260.985 0 257.861C0 254.771 0.717141 251.978 2.15142 249.477C3.59657 246.981 5.59587 245.033 8.14933 243.628C10.7137 242.212 13.5822 241.504 16.755 241.504C19.0423 241.504 21.3295 241.938 23.6222 242.806C25.9094 243.674 27.8598 244.862 29.468 246.37L24.4045 252.766C23.3723 251.716 22.1662 250.882 20.7754 250.254C19.3845 249.614 18.0263 249.294 16.7116 249.294C15.2881 249.294 14.0006 249.677 12.8433 250.436C11.6807 251.184 10.768 252.212 10.1052 253.52C9.45322 254.834 9.12725 256.279 9.12725 257.861C9.12725 259.494 9.45866 260.968 10.1269 262.293C10.806 263.606 11.735 264.64 12.9085 265.4C14.082 266.148 15.3751 266.519 16.7985 266.519C18.0861 266.519 19.6073 266.085 21.3621 265.217V257.313Z" fill="#31373E"/>
<path d="M63.2667 273.69H53.1398L49.1412 265.169H44.4254V273.69H35.4938V242.073H49.5323C53.5581 242.073 56.682 243.055 58.8986 245.02C61.1153 246.973 62.2236 249.737 62.2236 253.312C62.2236 255.631 61.7889 257.642 60.9197 259.344C60.0504 261.034 58.7954 262.376 57.1601 263.364L63.2667 273.69ZM44.4254 249.292V257.95H49.5323C50.8797 257.95 51.912 257.579 52.64 256.831C53.3625 256.071 53.7265 254.992 53.7265 253.587C53.7265 252.204 53.3625 251.142 52.64 250.411C51.912 249.669 50.8797 249.292 49.5323 249.292H44.4254Z" fill="#31373E"/>
<path d="M68.6492 273.69V242.073H93.2493V249.292H77.5809V254.249H91.7716V261.468H77.5809V266.471H93.6622V273.69H68.6492Z" fill="#31373E"/>
<path d="M119.018 242.073H127.906L117.084 263.684V273.69H108.174V263.867L97.1346 242.073H106.066L112.629 254.98L119.018 242.073Z" fill="#31373E"/>
<path d="M153.79 252.264C152.192 251.276 150.432 250.436 148.509 249.751C146.597 249.054 145.021 248.7 143.793 248.7C143.022 248.7 142.413 248.86 141.968 249.18C141.533 249.5 141.316 249.957 141.316 250.551C141.316 251.407 141.74 252.07 142.598 252.538C143.451 252.995 144.815 253.492 146.683 254.023C148.797 254.663 150.535 255.314 151.899 255.965C153.274 256.605 154.469 257.587 155.485 258.912C156.495 260.225 157.006 261.967 157.006 264.143C157.006 266.336 156.452 268.198 155.354 269.718C154.251 271.225 152.768 272.362 150.899 273.121C149.03 273.864 146.933 274.241 144.619 274.241C142.038 274.241 139.452 273.784 136.861 272.87C134.28 271.945 132.047 270.688 130.167 269.101L133.514 261.973C135.019 263.361 136.866 264.526 139.056 265.468C141.24 266.416 143.125 266.885 144.706 266.885C145.673 266.885 146.428 266.696 146.966 266.314C147.515 265.92 147.792 265.354 147.792 264.623C147.792 263.755 147.346 263.092 146.466 262.636C145.581 262.167 144.206 261.67 142.337 261.151C140.251 260.591 138.518 260.003 137.143 259.392C135.78 258.769 134.601 257.81 133.601 256.513C132.601 255.222 132.102 253.52 132.102 251.419C132.102 249.38 132.612 247.598 133.645 246.073C134.671 244.554 136.122 243.389 137.991 242.578C139.86 241.772 142.038 241.367 144.532 241.367C146.792 241.367 149.036 241.704 151.269 242.372C153.496 243.046 155.441 243.943 157.093 245.068L153.79 252.264Z" fill="#A6A6A6"/>
<path d="M184.073 253.589C183.128 252.264 182.009 251.224 180.705 250.459C179.412 249.682 178.151 249.294 176.924 249.294C175.576 249.294 174.359 249.66 173.273 250.391C172.186 251.11 171.322 252.104 170.687 253.383C170.062 254.663 169.752 256.096 169.752 257.678C169.752 259.277 170.062 260.717 170.687 261.996C171.322 263.275 172.186 264.28 173.273 265.011C174.359 265.742 175.576 266.108 176.924 266.108C178.064 266.108 179.281 265.782 180.574 265.126C181.878 264.475 183.041 263.572 184.073 262.43L189.224 268.187C187.599 270.06 185.638 271.556 183.334 272.664C181.031 273.772 178.749 274.332 176.489 274.332C173.49 274.332 170.779 273.618 168.361 272.185C165.938 270.757 164.042 268.775 162.668 266.245C161.304 263.721 160.625 260.894 160.625 257.77C160.625 254.708 161.32 251.938 162.711 249.454C164.113 246.975 166.041 245.033 168.492 243.628C170.953 242.212 173.718 241.504 176.793 241.504C179.053 241.504 181.313 242.018 183.573 243.035C185.833 244.057 187.713 245.422 189.224 247.124L184.073 253.589Z" fill="#A6A6A6"/>
<path d="M225.506 273.69H215.988L214.228 268.641H202.102L200.298 273.69H191.105L203.927 242.073H213.12L225.506 273.69ZM208.273 251.462L204.579 261.788H211.881L208.273 251.462Z" fill="#A6A6A6"/>
<path d="M229.746 273.69V242.073H238.678V265.854H251.282V273.69H229.746Z" fill="#A6A6A6"/>
<path d="M256.425 273.69V242.073H281.025V249.292H265.356V254.249H279.547V261.468H265.356V266.471H281.438V273.69H256.425Z" fill="#A6A6A6"/>
<path d="M297.808 263.783C298.079 263.498 298.427 263.349 298.851 263.349C299.286 263.349 299.639 263.498 299.916 263.783C300.187 264.057 300.329 264.423 300.329 264.88C300.329 265.337 300.187 265.714 299.916 265.999C299.639 266.273 299.286 266.41 298.851 266.41C298.427 266.41 298.079 266.273 297.808 265.999C297.547 265.714 297.417 265.337 297.417 264.88C297.417 264.423 297.547 264.057 297.808 263.783Z" fill="#31373E"/>
<path d="M306.351 252.314C306.656 251.994 307.036 251.834 307.503 251.834C307.981 251.834 308.362 251.994 308.655 252.314C308.959 252.622 309.111 253.022 309.111 253.525C309.111 254.016 308.959 254.416 308.655 254.736C308.362 255.044 307.981 255.192 307.503 255.192C307.036 255.192 306.656 255.044 306.351 254.736C306.058 254.416 305.917 254.016 305.917 253.525C305.917 253.022 306.058 252.622 306.351 252.314ZM309.003 266.272H306.004V256.358H309.003V266.272Z" fill="#31373E"/>
<path d="M315.382 256.244C315.663 256.244 315.891 256.327 316.065 256.492C316.237 256.657 316.324 256.876 316.324 257.146C316.324 257.414 316.237 257.633 316.065 257.801C315.891 257.966 315.663 258.048 315.382 258.048C315.097 258.048 314.867 257.966 314.691 257.801C314.518 257.633 314.432 257.414 314.432 257.146C314.432 256.876 314.518 256.657 314.691 256.492C314.867 256.327 315.097 256.244 315.382 256.244ZM315.382 256.695C315.264 256.695 315.17 256.738 315.099 256.821C315.027 256.905 314.991 257.015 314.991 257.15C314.991 257.288 315.027 257.4 315.099 257.483C315.17 257.568 315.264 257.609 315.382 257.609C315.494 257.609 315.586 257.568 315.658 257.483C315.729 257.4 315.765 257.288 315.765 257.15C315.765 257.015 315.729 256.905 315.658 256.821C315.586 256.738 315.494 256.695 315.382 256.695Z" fill="#31373E"/>
</svg>
