<svg width="237" height="42" viewBox="0 0 237 42" fill="none" xmlns="http://www.w3.org/2000/svg">
<path d="M0.182114 1H22.513V6.77549H0.182114V1Z" fill="#04352E"/>
<path d="M5.29042 1.00415V25.6589H0.0591431V1.00415H5.29042Z" fill="#04352E"/>
<path d="M0.0223236 25.7109H22.3539V31.4864H0.0223236V25.7109Z" fill="#04352E"/>
<path d="M22.3996 14.5894V25.6688H17.1683V14.5894H22.3996Z" fill="#04352E"/>
<path d="M22.4048 1H44.7364V6.77549H22.4048V1Z" fill="#A6A6A6"/>
<path d="M22.4048 14.3274H44.7364V20.1029H22.4048V14.3274Z" fill="#A6A6A6"/>
<path d="M22.4048 25.7109H44.7364V31.4864H22.4048V25.7109Z" fill="#A6A6A6"/>
<path d="M27.8319 6.82275V14.3128H22.6006V6.82275H27.8319Z" fill="#A6A6A6"/>
<path d="M44.782 20.1499V27.64H39.5508V20.1499H44.782Z" fill="#A6A6A6"/>
<path d="M5.29189 6.82275H17.0269V25.5533H5.29189V6.82275Z" fill="#F2FFFC"/>
<path d="M27.5565 6.82178H44.8056V14.3143H27.5565V6.82178Z" fill="#F2FFFC"/>
<path d="M22.4011 20.1492H39.6501V25.6125H22.4011V20.1492Z" fill="#F2FFFC"/>
<path d="M22.4011 6.82178V14.6265H17.0284V6.82178H22.4011Z" fill="#F2FFFC"/>
<path d="M39.6288 34.7563H45V41.0001H39.6288V34.7563Z" fill="#1CBFA8"/>
<path d="M2.89547 37.628H3.93524V39.4589C3.71286 39.6304 3.43892 39.7727 3.11344 39.8849C2.78943 39.9955 2.48162 40.0508 2.19148 40.0508C1.77469 40.0508 1.39987 39.9491 1.06629 39.7451C0.734176 39.5418 0.472759 39.2622 0.282772 38.9061C0.0942573 38.5508 0 38.1508 0 37.7061C0 37.2663 0.0972029 36.8687 0.291609 36.5126C0.487487 36.1573 0.758477 35.8801 1.10458 35.6801C1.45215 35.4785 1.84096 35.3777 2.27101 35.3777C2.58103 35.3777 2.89105 35.4395 3.2018 35.563C3.51182 35.6866 3.77618 35.8557 3.99415 36.0704L3.30784 36.9809C3.16793 36.8313 3.00445 36.7126 2.81594 36.6232C2.62742 36.5321 2.44333 36.4866 2.26512 36.4866C2.07219 36.4866 1.89767 36.5411 1.74082 36.6492C1.58323 36.7557 1.45952 36.902 1.36968 37.0882C1.28131 37.2752 1.23713 37.4809 1.23713 37.7061C1.23713 37.9386 1.28205 38.1484 1.37262 38.337C1.46467 38.524 1.59059 38.6711 1.74965 38.7792C1.90871 38.8857 2.08397 38.9386 2.2769 38.9386C2.45143 38.9386 2.65762 38.8768 2.89547 38.7532V37.628Z" fill="#31373E"/>
<path d="M8.5753 39.9597H7.20268L6.6607 38.7467H6.02152V39.9597H4.8109V35.459H6.71372C7.25938 35.459 7.6828 35.5988 7.98325 35.8785C8.28369 36.1565 8.43391 36.55 8.43391 37.0589C8.43391 37.389 8.375 37.6752 8.25718 37.9175C8.13936 38.1581 7.96925 38.3492 7.7476 38.4898L8.5753 39.9597ZM6.02152 36.4866V37.7191H6.71372C6.89634 37.7191 7.03625 37.6663 7.13493 37.5598C7.23287 37.4516 7.28221 37.298 7.28221 37.098C7.28221 36.9012 7.23287 36.75 7.13493 36.646C7.03625 36.5403 6.89634 36.4866 6.71372 36.4866H6.02152Z" fill="#31373E"/>
<path d="M9.30487 39.9597V35.459H12.6392V36.4866H10.5155V37.1923H12.4389V38.2199H10.5155V38.9321H12.6952V39.9597H9.30487Z" fill="#31373E"/>
<path d="M16.132 35.459H17.3367L15.8699 38.5353V39.9597H14.6622V38.5614L13.1658 35.459H14.3765L15.266 37.2963L16.132 35.459Z" fill="#31373E"/>
<path d="M20.845 36.9093C20.6285 36.7687 20.3899 36.6492 20.1292 36.5516C19.87 36.4524 19.6565 36.402 19.4901 36.402C19.3855 36.402 19.303 36.4248 19.2426 36.4703C19.1837 36.5159 19.1543 36.5809 19.1543 36.6654C19.1543 36.7874 19.2117 36.8817 19.3281 36.9484C19.4437 37.0134 19.6285 37.0841 19.8818 37.1597C20.1683 37.2508 20.4039 37.3435 20.5887 37.4362C20.775 37.5272 20.9371 37.667 21.0748 37.8557C21.2117 38.0426 21.2809 38.2906 21.2809 38.6004C21.2809 38.9125 21.2058 39.1776 21.0571 39.3938C20.9076 39.6085 20.7066 39.7702 20.4532 39.8784C20.1999 39.9841 19.9157 40.0377 19.602 40.0377C19.2522 40.0377 18.9017 39.9727 18.5504 39.8426C18.2006 39.7109 17.898 39.532 17.6432 39.306L18.0968 38.2914C18.3008 38.489 18.5512 38.6548 18.8479 38.789C19.144 38.9239 19.3995 38.9906 19.6138 38.9906C19.7448 38.9906 19.8472 38.9638 19.9201 38.9093C19.9945 38.8532 20.032 38.7727 20.032 38.6686C20.032 38.5451 19.9717 38.4508 19.8524 38.3857C19.7323 38.3191 19.546 38.2483 19.2927 38.1744C19.0099 38.0947 18.775 38.0109 18.5887 37.9239C18.4039 37.8353 18.2441 37.6988 18.1086 37.5142C17.9731 37.3305 17.9054 37.0882 17.9054 36.789C17.9054 36.4988 17.9746 36.2451 18.1145 36.0281C18.2537 35.8118 18.4503 35.646 18.7036 35.5305C18.9569 35.4159 19.2522 35.3582 19.5902 35.3582C19.8965 35.3582 20.2007 35.4061 20.5033 35.5012C20.8052 35.5972 21.0689 35.7248 21.2927 35.885L20.845 36.9093Z" fill="#A6A6A6"/>
<path d="M24.9497 37.098C24.8216 36.9094 24.6699 36.7614 24.4931 36.6525C24.3179 36.5419 24.147 36.4866 23.9806 36.4866C23.798 36.4866 23.633 36.5386 23.4858 36.6427C23.3385 36.7451 23.2214 36.8866 23.1352 37.0687C23.0506 37.2508 23.0086 37.4549 23.0086 37.6801C23.0086 37.9077 23.0506 38.1126 23.1352 38.2947C23.2214 38.4768 23.3385 38.6199 23.4858 38.724C23.633 38.828 23.798 38.8801 23.9806 38.8801C24.1352 38.8801 24.3002 38.8337 24.4755 38.7402C24.6522 38.6475 24.8098 38.5191 24.9497 38.3565L25.6478 39.176C25.4276 39.4426 25.1618 39.6556 24.8495 39.8134C24.5373 39.9711 24.228 40.0508 23.9217 40.0508C23.5152 40.0508 23.1478 39.9491 22.8201 39.7451C22.4916 39.5418 22.2346 39.2597 22.0483 38.8996C21.8635 38.5402 21.7715 38.1378 21.7715 37.6931C21.7715 37.2573 21.8657 36.863 22.0542 36.5094C22.2442 36.1565 22.5056 35.8801 22.8377 35.6801C23.1713 35.4785 23.5461 35.3777 23.9629 35.3777C24.2693 35.3777 24.5756 35.4509 24.8819 35.5956C25.1883 35.7411 25.4431 35.9354 25.6478 36.1777L24.9497 37.098Z" fill="#A6A6A6"/>
<path d="M30.5657 39.9597H29.2755L29.0369 39.241H27.3933L27.1488 39.9597H25.9029L27.6407 35.459H28.8867L30.5657 39.9597ZM28.2298 36.7955L27.7291 38.2654H28.7188L28.2298 36.7955Z" fill="#A6A6A6"/>
<path d="M31.1403 39.9597V35.459H32.3509V38.8443H34.0593V39.9597H31.1403Z" fill="#A6A6A6"/>
<path d="M34.7564 39.9597V35.459H38.0907V36.4866H35.967V37.1923H37.8904V38.2199H35.967V38.9321H38.1467V39.9597H34.7564Z" fill="#A6A6A6"/>
<path d="M40.3655 38.5493C40.4023 38.5087 40.4495 38.4875 40.5069 38.4875C40.5658 38.4875 40.6137 38.5087 40.6512 38.5493C40.6881 38.5884 40.7072 38.6404 40.7072 38.7054C40.7072 38.7705 40.6881 38.8241 40.6512 38.8648C40.6137 38.9038 40.5658 38.9233 40.5069 38.9233C40.4495 38.9233 40.4023 38.9038 40.3655 38.8648C40.3302 38.8241 40.3125 38.7705 40.3125 38.7054C40.3125 38.6404 40.3302 38.5884 40.3655 38.5493Z" fill="#31373E"/>
<path d="M41.5235 36.9167C41.5648 36.8712 41.6163 36.8484 41.6797 36.8484C41.7445 36.8484 41.796 36.8712 41.8358 36.9167C41.877 36.9606 41.8976 37.0175 41.8976 37.089C41.8976 37.159 41.877 37.2159 41.8358 37.2614C41.796 37.3053 41.7445 37.3264 41.6797 37.3264C41.6163 37.3264 41.5648 37.3053 41.5235 37.2614C41.4838 37.2159 41.4646 37.159 41.4646 37.089C41.4646 37.0175 41.4838 36.9606 41.5235 36.9167ZM41.8829 38.9036H41.4764V37.4923H41.8829V38.9036Z" fill="#31373E"/>
<path d="M43.5691 37.4761C43.8506 37.4761 44.0781 37.5594 44.2518 37.724C44.4245 37.8897 44.5114 38.1082 44.5114 38.3785C44.5114 38.6468 44.4245 38.8653 44.2518 39.033C44.0781 39.1986 43.8506 39.2809 43.5691 39.2809C43.2836 39.2809 43.054 39.1986 42.8783 39.033C42.7046 38.8653 42.6188 38.6468 42.6188 38.3785C42.6188 38.1082 42.7046 37.8897 42.8783 37.724C43.054 37.5594 43.2836 37.4761 43.5691 37.4761ZM43.5691 37.9273C43.4513 37.9273 43.3574 37.97 43.2856 38.0533C43.2137 38.1376 43.1778 38.2474 43.1778 38.3826C43.1778 38.5208 43.2137 38.6326 43.2856 38.7159C43.3574 38.8002 43.4513 38.8419 43.5691 38.8419C43.6809 38.8419 43.7727 38.8002 43.8446 38.7159C43.9164 38.6326 43.9524 38.5208 43.9524 38.3826C43.9524 38.2474 43.9164 38.1376 43.8446 38.0533C43.7727 37.97 43.6809 37.9273 43.5691 37.9273Z" fill="#31373E"/>
<path d="M70.7685 17.1491C70.5909 16.5739 70.3459 16.0589 70.0334 15.6044C69.728 15.1428 69.3587 14.7486 68.9254 14.4219C68.4993 14.0952 68.0092 13.8501 67.4553 13.6868C66.9013 13.5163 66.2976 13.4311 65.6442 13.4311C64.4723 13.4311 63.4283 13.7259 62.5121 14.3153C61.5959 14.9048 60.875 15.7713 60.3494 16.9148C59.831 18.0511 59.5717 19.4361 59.5717 21.0696C59.5717 22.7173 59.831 24.1129 60.3494 25.2564C60.8679 26.3999 61.5888 27.2699 62.5121 27.8665C63.4354 28.456 64.5078 28.7507 65.7294 28.7507C66.8374 28.7507 67.7962 28.5376 68.6058 28.1115C69.4226 27.6854 70.0511 27.0817 70.4915 26.3004C70.9318 25.5121 71.152 24.5888 71.152 23.5305L72.0469 23.669H66.1236V20.5795H74.9766V23.2003C74.9766 25.0682 74.5788 26.6839 73.7834 28.0476C72.9879 29.4112 71.8942 30.4624 70.5021 31.201C69.1101 31.9325 67.5121 32.2983 65.7081 32.2983C63.6982 32.2983 61.9332 31.8473 60.4134 30.9453C58.9006 30.0362 57.718 28.7472 56.8658 27.0781C56.0206 25.402 55.598 23.4134 55.598 21.1122C55.598 19.3509 55.8466 17.7777 56.3438 16.3928C56.848 15.0078 57.5511 13.8324 58.4531 12.8665C59.3551 11.8935 60.4134 11.1548 61.6278 10.6506C62.8423 10.1392 64.1634 9.88352 65.5909 9.88352C66.7983 9.88352 67.924 10.0611 68.968 10.4162C70.0121 10.7642 70.9389 11.2614 71.7486 11.9077C72.5653 12.554 73.2365 13.321 73.7621 14.2088C74.2876 15.0966 74.6321 16.0767 74.7955 17.1491H70.7685ZM78.628 32V15.6364H82.3674V18.3636H82.5378C82.8361 17.419 83.3475 16.6911 84.0719 16.1797C84.8034 15.6612 85.638 15.402 86.5755 15.402C86.7885 15.402 87.0265 15.4126 87.2892 15.4339C87.5591 15.4482 87.7828 15.473 87.9604 15.5085V19.0561C87.7971 18.9993 87.5378 18.9496 87.1827 18.907C86.8347 18.8572 86.4973 18.8324 86.1706 18.8324C85.4675 18.8324 84.8354 18.9851 84.2743 19.2905C83.7203 19.5888 83.2836 20.0043 82.964 20.5369C82.6444 21.0696 82.4846 21.6839 82.4846 22.38V32H78.628ZM97.093 32.3196C95.4524 32.3196 94.0355 31.9787 92.8423 31.2969C91.6563 30.608 90.7436 29.6349 90.1044 28.3778C89.4652 27.1136 89.1456 25.6257 89.1456 23.9141C89.1456 22.2308 89.4652 20.7536 90.1044 19.4822C90.7507 18.2038 91.6527 17.2095 92.8104 16.4993C93.968 15.782 95.3281 15.4233 96.8906 15.4233C97.8991 15.4233 98.8509 15.5866 99.7457 15.9134C100.648 16.233 101.443 16.7301 102.132 17.4048C102.828 18.0795 103.375 18.9389 103.773 19.983C104.17 21.0199 104.369 22.2557 104.369 23.6903V24.8729H90.9567V22.2734H100.673C100.665 21.5348 100.506 20.8778 100.193 20.3026C99.8807 19.7202 99.4439 19.2621 98.8828 18.9283C98.3288 18.5945 97.6825 18.4276 96.9439 18.4276C96.1555 18.4276 95.4631 18.6193 94.8665 19.0028C94.2699 19.3793 93.8047 19.8764 93.4709 20.4943C93.1442 21.1051 92.9773 21.7763 92.9702 22.5078V24.777C92.9702 25.7287 93.1442 26.5455 93.4922 27.2273C93.8402 27.902 94.3267 28.4205 94.9517 28.7827C95.5767 29.1378 96.3082 29.3153 97.1463 29.3153C97.7074 29.3153 98.2152 29.2372 98.6697 29.081C99.1243 28.9176 99.5185 28.6797 99.8523 28.3672C100.186 28.0547 100.438 27.6676 100.609 27.206L104.21 27.6108C103.982 28.5625 103.549 29.3935 102.91 30.1037C102.278 30.8068 101.468 31.3537 100.481 31.7443C99.4936 32.1278 98.3643 32.3196 97.093 32.3196ZM109.56 38.1364C109.035 38.1364 108.548 38.0938 108.101 38.0085C107.66 37.9304 107.309 37.8381 107.046 37.7315L107.941 34.7273C108.502 34.8906 109.003 34.9688 109.443 34.9616C109.883 34.9545 110.27 34.8161 110.604 34.5462C110.945 34.2834 111.233 33.843 111.467 33.2251L111.797 32.3409L105.863 15.6364H109.954L113.726 27.9943H113.896L117.678 15.6364H121.78L115.228 33.9815C114.922 34.848 114.518 35.5902 114.013 36.2081C113.509 36.8331 112.891 37.3089 112.16 37.6357C111.435 37.9695 110.569 38.1364 109.56 38.1364Z" fill="#04352E"/>
<path d="M136.476 16.1797C136.377 15.2493 135.958 14.5249 135.219 14.0064C134.487 13.4879 133.536 13.2287 132.364 13.2287C131.54 13.2287 130.833 13.353 130.244 13.6016C129.654 13.8501 129.203 14.1875 128.891 14.6136C128.578 15.0398 128.419 15.5263 128.411 16.0732C128.411 16.5277 128.514 16.9219 128.72 17.2557C128.933 17.5895 129.221 17.8736 129.583 18.108C129.945 18.3352 130.347 18.527 130.787 18.6832C131.227 18.8395 131.671 18.9709 132.119 19.0774L134.164 19.5888C134.988 19.7805 135.78 20.0398 136.54 20.3665C137.307 20.6932 137.992 21.1051 138.596 21.6023C139.207 22.0994 139.69 22.6996 140.045 23.4027C140.4 24.1058 140.578 24.9297 140.578 25.8743C140.578 27.1527 140.251 28.2784 139.597 29.2514C138.944 30.2173 137.999 30.9737 136.764 31.5206C135.535 32.0604 134.047 32.3303 132.3 32.3303C130.602 32.3303 129.129 32.0675 127.879 31.5419C126.636 31.0163 125.663 30.2493 124.96 29.2408C124.264 28.2322 123.887 27.0036 123.83 25.5547H127.719C127.776 26.3146 128.01 26.9467 128.422 27.451C128.834 27.9553 129.37 28.3317 130.031 28.5803C130.698 28.8288 131.444 28.9531 132.268 28.9531C133.127 28.9531 133.88 28.8253 134.526 28.5696C135.18 28.3068 135.691 27.9446 136.061 27.483C136.43 27.0142 136.618 26.4673 136.625 25.8423C136.618 25.2741 136.451 24.8054 136.124 24.4361C135.798 24.0597 135.34 23.7472 134.75 23.4986C134.168 23.2429 133.486 23.0156 132.705 22.8168L130.222 22.1776C128.426 21.7159 127.005 21.0163 125.961 20.0788C124.924 19.1342 124.406 17.8807 124.406 16.3182C124.406 15.0327 124.754 13.907 125.45 12.9411C126.153 11.9751 127.108 11.2259 128.316 10.6932C129.523 10.1534 130.89 9.88352 132.417 9.88352C133.965 9.88352 135.322 10.1534 136.487 10.6932C137.659 11.2259 138.578 11.968 139.246 12.9197C139.914 13.8643 140.258 14.951 140.279 16.1797H136.476ZM151.069 32.3196C149.435 32.3196 148.032 31.9609 146.86 31.2436C145.696 30.5263 144.797 29.5355 144.165 28.2713C143.54 27 143.228 25.5369 143.228 23.8821C143.228 22.2202 143.547 20.7536 144.186 19.4822C144.826 18.2038 145.728 17.2095 146.892 16.4993C148.064 15.782 149.449 15.4233 151.047 15.4233C152.375 15.4233 153.551 15.6683 154.574 16.1584C155.603 16.6413 156.424 17.3267 157.034 18.2145C157.645 19.0952 157.993 20.125 158.078 21.304H154.392C154.243 20.5156 153.888 19.8587 153.327 19.3331C152.773 18.8004 152.031 18.5341 151.1 18.5341C150.312 18.5341 149.62 18.7472 149.023 19.1733C148.426 19.5923 147.961 20.196 147.627 20.9844C147.301 21.7727 147.137 22.7173 147.137 23.8182C147.137 24.9332 147.301 25.892 147.627 26.6946C147.954 27.4901 148.412 28.1044 149.002 28.5376C149.598 28.9638 150.298 29.1768 151.1 29.1768C151.669 29.1768 152.176 29.0703 152.624 28.8572C153.078 28.6371 153.458 28.321 153.764 27.9091C154.069 27.4972 154.279 26.9964 154.392 26.407H158.078C157.986 27.5646 157.645 28.5909 157.056 29.4858C156.466 30.3736 155.664 31.0696 154.648 31.5739C153.632 32.071 152.439 32.3196 151.069 32.3196ZM165.954 32.3303C164.917 32.3303 163.983 32.1456 163.152 31.7763C162.328 31.3999 161.675 30.8459 161.192 30.1143C160.716 29.3828 160.478 28.4808 160.478 27.4084C160.478 26.4851 160.649 25.7216 160.99 25.1179C161.33 24.5142 161.796 24.0312 162.385 23.669C162.975 23.3068 163.639 23.0334 164.377 22.8487C165.123 22.657 165.894 22.5185 166.689 22.4332C167.648 22.3338 168.426 22.245 169.022 22.1669C169.619 22.0817 170.052 21.9538 170.322 21.7834C170.599 21.6058 170.737 21.3324 170.737 20.9631V20.8991C170.737 20.0966 170.499 19.4751 170.024 19.0348C169.548 18.5945 168.862 18.3743 167.968 18.3743C167.023 18.3743 166.274 18.5803 165.72 18.9922C165.173 19.4041 164.803 19.8906 164.612 20.4517L161.011 19.9403C161.295 18.946 161.764 18.1151 162.417 17.4474C163.07 16.7727 163.869 16.2685 164.814 15.9347C165.759 15.5938 166.803 15.4233 167.946 15.4233C168.735 15.4233 169.519 15.5156 170.301 15.7003C171.082 15.8849 171.796 16.1903 172.442 16.6165C173.088 17.0355 173.607 17.6072 173.997 18.3317C174.395 19.0561 174.594 19.9616 174.594 21.0483V32H170.887V29.7521H170.759C170.524 30.2067 170.194 30.6328 169.768 31.0305C169.349 31.4212 168.82 31.7372 168.181 31.9787C167.548 32.2131 166.806 32.3303 165.954 32.3303ZM166.955 29.4964C167.73 29.4964 168.401 29.3437 168.969 29.0384C169.537 28.7259 169.974 28.3139 170.279 27.8026C170.592 27.2912 170.748 26.7337 170.748 26.13V24.2017C170.627 24.3011 170.421 24.3935 170.13 24.4787C169.846 24.5639 169.526 24.6385 169.171 24.7024C168.816 24.7663 168.465 24.8232 168.117 24.8729C167.769 24.9226 167.467 24.9652 167.211 25.0007C166.636 25.0788 166.121 25.2067 165.666 25.3842C165.212 25.5618 164.853 25.8104 164.59 26.13C164.328 26.4425 164.196 26.8473 164.196 27.3445C164.196 28.0547 164.455 28.5909 164.974 28.9531C165.492 29.3153 166.153 29.4964 166.955 29.4964ZM182.328 10.1818V32H178.472V10.1818H182.328ZM193.538 32.3196C191.898 32.3196 190.481 31.9787 189.288 31.2969C188.102 30.608 187.189 29.6349 186.55 28.3778C185.911 27.1136 185.591 25.6257 185.591 23.9141C185.591 22.2308 185.911 20.7536 186.55 19.4822C187.196 18.2038 188.098 17.2095 189.256 16.4993C190.413 15.782 191.773 15.4233 193.336 15.4233C194.344 15.4233 195.296 15.5866 196.191 15.9134C197.093 16.233 197.888 16.7301 198.577 17.4048C199.273 18.0795 199.82 18.9389 200.218 19.983C200.616 21.0199 200.815 22.2557 200.815 23.6903V24.8729H187.402V22.2734H197.118C197.111 21.5348 196.951 20.8778 196.638 20.3026C196.326 19.7202 195.889 19.2621 195.328 18.9283C194.774 18.5945 194.128 18.4276 193.389 18.4276C192.601 18.4276 191.908 18.6193 191.312 19.0028C190.715 19.3793 190.25 19.8764 189.916 20.4943C189.589 21.1051 189.423 21.7763 189.415 22.5078V24.777C189.415 25.7287 189.589 26.5455 189.938 27.2273C190.286 27.902 190.772 28.4205 191.397 28.7827C192.022 29.1378 192.754 29.3153 193.592 29.3153C194.153 29.3153 194.661 29.2372 195.115 29.081C195.57 28.9176 195.964 28.6797 196.298 28.3672C196.631 28.0547 196.884 27.6676 197.054 27.206L200.655 27.6108C200.428 28.5625 199.994 29.3935 199.355 30.1037C198.723 30.8068 197.913 31.3537 196.926 31.7443C195.939 32.1278 194.81 32.3196 193.538 32.3196Z" fill="#576A69"/>
<path d="M206.453 32.2344C205.807 32.2344 205.253 32.0071 204.791 31.5526C204.329 31.098 204.102 30.544 204.109 29.8906C204.102 29.2514 204.329 28.7045 204.791 28.25C205.253 27.7955 205.807 27.5682 206.453 27.5682C207.078 27.5682 207.621 27.7955 208.083 28.25C208.552 28.7045 208.79 29.2514 208.797 29.8906C208.79 30.3239 208.676 30.718 208.456 31.0732C208.243 31.4283 207.959 31.7124 207.604 31.9254C207.256 32.1314 206.872 32.2344 206.453 32.2344ZM212.778 32V15.6364H216.635V32H212.778ZM214.717 13.3139C214.107 13.3139 213.581 13.1115 213.141 12.7067C212.7 12.2947 212.48 11.8011 212.48 11.2259C212.48 10.6435 212.7 10.1499 213.141 9.74503C213.581 9.3331 214.107 9.12713 214.717 9.12713C215.335 9.12713 215.861 9.3331 216.294 9.74503C216.734 10.1499 216.955 10.6435 216.955 11.2259C216.955 11.8011 216.734 12.2947 216.294 12.7067C215.861 13.1115 215.335 13.3139 214.717 13.3139ZM227.738 32.3196C226.14 32.3196 224.756 31.968 223.584 31.2649C222.412 30.5618 221.503 29.5781 220.856 28.3139C220.217 27.0497 219.898 25.5724 219.898 23.8821C219.898 22.1918 220.217 20.7109 220.856 19.4396C221.503 18.1683 222.412 17.1811 223.584 16.478C224.756 15.7749 226.14 15.4233 227.738 15.4233C229.336 15.4233 230.721 15.7749 231.893 16.478C233.065 17.1811 233.971 18.1683 234.61 19.4396C235.256 20.7109 235.579 22.1918 235.579 23.8821C235.579 25.5724 235.256 27.0497 234.61 28.3139C233.971 29.5781 233.065 30.5618 231.893 31.2649C230.721 31.968 229.336 32.3196 227.738 32.3196ZM227.76 29.2301C228.626 29.2301 229.351 28.9922 229.933 28.5163C230.515 28.0334 230.949 27.3871 231.233 26.5774C231.524 25.7678 231.67 24.8658 231.67 23.8714C231.67 22.87 231.524 21.9645 231.233 21.1548C230.949 20.3381 230.515 19.6882 229.933 19.2053C229.351 18.7223 228.626 18.4808 227.76 18.4808C226.872 18.4808 226.133 18.7223 225.544 19.2053C224.961 19.6882 224.525 20.3381 224.233 21.1548C223.949 21.9645 223.807 22.87 223.807 23.8714C223.807 24.8658 223.949 25.7678 224.233 26.5774C224.525 27.3871 224.961 28.0334 225.544 28.5163C226.133 28.9922 226.872 29.2301 227.76 29.2301Z" fill="#1CBFA8"/>
</svg>
