<svg width="28" height="28" viewBox="0 0 28 28" fill="none" xmlns="http://www.w3.org/2000/svg">
<path d="M25.2855 21.6456C24.5355 20.977 23.8789 20.2105 23.3333 19.3667C22.7377 18.202 22.3807 16.9301 22.2833 15.6256V11.7834C22.2885 9.73442 21.5452 7.7541 20.1932 6.21448C18.8412 4.67487 16.9735 3.68195 14.9411 3.42228V2.41895C14.9411 2.14357 14.8317 1.87946 14.637 1.68474C14.4422 1.49001 14.1781 1.38062 13.9027 1.38062C13.6274 1.38062 13.3633 1.49001 13.1685 1.68474C12.9738 1.87946 12.8644 2.14357 12.8644 2.41895V3.43784C10.8502 3.71623 9.00506 4.71515 7.67083 6.24959C6.33659 7.78403 5.60365 9.75 5.60775 11.7834V15.6256C5.51033 16.9301 5.15335 18.202 4.55775 19.3667C4.02177 20.2086 3.37568 20.975 2.63664 21.6456C2.55367 21.7185 2.48718 21.8082 2.44158 21.9088C2.39599 22.0094 2.37233 22.1185 2.37219 22.2289V23.2867C2.37219 23.493 2.45414 23.6908 2.6 23.8367C2.74586 23.9826 2.94369 24.0645 3.14997 24.0645H24.7722C24.9785 24.0645 25.1763 23.9826 25.3222 23.8367C25.468 23.6908 25.55 23.493 25.55 23.2867V22.2289C25.5498 22.1185 25.5262 22.0094 25.4806 21.9088C25.435 21.8082 25.3685 21.7185 25.2855 21.6456ZM3.98997 22.5089C4.71362 21.8099 5.35077 21.0265 5.88775 20.1756C6.638 18.769 7.07575 17.217 7.17108 15.6256V11.7834C7.14023 10.8719 7.29313 9.96345 7.62067 9.11224C7.94821 8.26104 8.44369 7.48445 9.07761 6.82872C9.71152 6.17298 10.4709 5.65152 11.3106 5.29538C12.1502 4.93924 13.0529 4.75571 13.965 4.75571C14.877 4.75571 15.7797 4.93924 16.6194 5.29538C17.459 5.65152 18.2184 6.17298 18.8523 6.82872C19.4862 7.48445 19.9817 8.26104 20.3093 9.11224C20.6368 9.96345 20.7897 10.8719 20.7589 11.7834V15.6256C20.8542 17.217 21.2919 18.769 22.0422 20.1756C22.5792 21.0265 23.2163 21.8099 23.94 22.5089H3.98997Z" fill="#444444" fill-opacity="0.6"/>
<path d="M14 26.6622C14.4899 26.651 14.9601 26.4668 15.3273 26.1422C15.6946 25.8177 15.9352 25.3738 16.0066 24.8889H11.9155C11.989 25.3869 12.2409 25.8413 12.6243 26.1675C13.0077 26.4937 13.4966 26.6695 14 26.6622Z" fill="#444444" fill-opacity="0.6"/>
</svg>
