<svg width="23" height="24" viewBox="0 0 23 24" fill="none" xmlns="http://www.w3.org/2000/svg">
<path d="M19.9656 20.2899L16.563 16.6099C17.8838 14.8143 18.5234 12.5352 18.3503 10.2412C18.1773 7.94721 17.2047 5.81269 15.6325 4.27655C14.0604 2.74041 12.0082 1.91941 9.89794 1.98237C7.78767 2.04534 5.77973 2.98747 4.28698 4.61505C2.79424 6.24263 1.93016 8.43194 1.87242 10.7328C1.81467 13.0337 2.56765 15.2713 3.97653 16.9854C5.38541 18.6996 7.34309 19.76 9.44704 19.9487C11.551 20.1374 13.6413 19.44 15.2881 17.9999L18.6633 21.6799C18.7485 21.7736 18.85 21.848 18.9617 21.8988C19.0735 21.9496 19.1934 21.9757 19.3144 21.9757C19.4355 21.9757 19.5554 21.9496 19.6672 21.8988C19.7789 21.848 19.8804 21.7736 19.9656 21.6799C20.1309 21.4934 20.2233 21.2442 20.2233 20.9849C20.2233 20.7256 20.1309 20.4764 19.9656 20.2899ZM10.1429 17.9999C8.87312 17.9999 7.63186 17.5894 6.57608 16.8202C5.5203 16.051 4.69742 14.9578 4.2115 13.6787C3.72558 12.3996 3.59844 10.9921 3.84616 9.63427C4.09388 8.27641 4.70534 7.02912 5.6032 6.05016C6.50107 5.07119 7.64502 4.4045 8.89039 4.13441C10.1358 3.86431 11.4266 4.00293 12.5998 4.53275C13.7729 5.06256 14.7755 5.95977 15.481 7.11091C16.1864 8.26206 16.563 9.61544 16.563 10.9999C16.563 12.8564 15.8866 14.6369 14.6826 15.9497C13.4786 17.2624 11.8456 17.9999 10.1429 17.9999Z" fill="white"/>
</svg>
